<svg xmlns="http://www.w3.org/2000/svg" width="212" height="72" viewBox="0 0 212 72">
    <g fill="none" fill-rule="evenodd">
        <path fill="#7450F6" d="M34.083 1.308A4.47 4.47 0 0 1 38.398.152l18.295 4.903a4.47 4.47 0 0 1 3.158 3.158l11.997 44.771a4.471 4.471 0 0 1-1.156 4.316L57.299 70.691a4.468 4.468 0 0 1-4.315 1.157L8.212 59.85a4.463 4.463 0 0 1-3.156-3.157L.152 38.398a4.465 4.465 0 0 1 1.157-4.314L34.083 1.308zM37.498 43.5l9 15h12l-11.25-18L58.498 24h-12l-7.5 12h-3V24h-16.5v3l6 3v28.5h10.5v-12l-4.5-3h6z"/>
        <g fill="#212944">
            <path d="M122.57 48.03c3.347 0 5.02-.567 5.02-1.704V34.403c0-1.136-1.673-1.704-5.02-1.704-3.347.114-5.02.681-5.02 1.704v11.923c0 1.137 1.673 1.705 5.02 1.705zM112.531 32.7c0-3.407 3.346-5.11 10.037-5.11 6.693 0 10.04 1.703 10.04 5.11v15.33c0 3.407-3.347 5.11-10.04 5.11-6.691 0-10.037-1.703-10.037-5.11V32.7zM142.342 29.293v17.033c0 1.137 1.723 1.705 5.17 1.705h3.449c1.148 0 1.723.567 1.723 1.703v1.703c0 1.137-.575 1.704-1.723 1.704h-3.449c-6.894 0-10.34-1.704-10.34-5.11V29.293c0-1.136.574-1.704 1.723-1.704h1.723c1.15 0 1.724.568 1.724 1.704M158.16 53.14c-1.217 0-1.825-.567-1.825-1.703V29.293c0-1.136.608-1.704 1.825-1.704h1.825c1.216 0 1.825.568 1.825 1.704v22.144c0 1.136-.61 1.704-1.825 1.704h-1.825zM177.323 47.761c3.123 0 4.685-.554 4.685-1.662V34.63c0-1.108-1.562-1.662-4.685-1.662H174.2c-1.04 0-1.561.554-1.561 1.662V46.1c0 1.108.52 1.662 1.561 1.662h3.123zm-10.038-18.468c0-1.137.558-1.704 1.673-1.704h8.364c6.693 0 10.04 1.704 10.04 5.11v15.332c0 3.406-3.347 5.11-10.04 5.11h-8.364c-1.115 0-1.673-.569-1.673-1.704V29.293zM210.327 53.14h-8.366c-6.691 0-10.037-1.703-10.037-5.11V32.7c0-3.407 3.346-5.11 10.037-5.11h8.366c1.115 0 1.673.567 1.673 1.703v1.703c0 1.136-.558 1.703-1.673 1.703h-8.366c-3.346 0-5.018.568-5.018 1.704v1.703c0 1.137.557 1.704 1.672 1.704h3.346c1.115 0 1.674.567 1.674 1.704v1.703c0 1.135-.559 1.703-1.674 1.703h-3.346c-1.115 0-1.672.568-1.672 1.703v1.703c0 1.137 1.672 1.705 5.018 1.705h8.366c1.115 0 1.673.568 1.673 1.703v1.703c0 1.136-.558 1.704-1.673 1.704M109.194 48.925l-8.538-8.589 8.464-8.514.009-.01c.007-.007.009-.016.015-.023.77-.795.766-1.59-.024-2.386l-1.202-1.193c-.801-.806-1.598-.806-2.387 0l-8.658 8.71c-.567.57-1.334.889-2.135.889h-.073c-1.129 0-1.693-.567-1.693-1.703v-6.814c0-1.135-.564-1.703-1.693-1.703h-1.693c-1.128 0-1.692.568-1.692 1.703v22.143c0 1.136.564 1.704 1.692 1.704h1.693c1.129 0 1.693-.568 1.693-1.704v-6.813c0-1.136.564-1.703 1.693-1.703h.113c.8 0 1.562.315 2.128.882l7.203 7.233 1.495 1.502c.801.806 1.604.806 2.405 0l1.185-1.209c.801-.807.801-1.607 0-2.402"/>
        </g>
    </g>
</svg>
