<?xml version="1.0" encoding="utf-8"?>
<svg version="1.1" xmlns="http://www.w3.org/2000/svg" xmlns:xlink="http://www.w3.org/1999/xlink" viewBox="0 0 530 150">
  <style type="text/css">
    .icon circle,
    .letters path {
      fill: #005B82;
    }

    .icon path {
      fill: #ffffff;
    }
  </style>
  <g>
    <g class="icon">
      <circle transform="matrix(0.2533263564109802,0,0,0.2533263564109802,-568.3572012990771,-928.6373622030078) " r="285.600006" cy="3979.599193" cx="2604.771318"/>
      <path d="m63.406133,71.69755c-0.227994,0.430655 -0.86131,0.202661 -0.785312,-0.278659l10.057056,-45.725407c0.126663,-0.607983 0.911975,-0.835977 1.317297,-0.329324l8.005113,9.499738c0.354657,0.430655 0.430655,1.013305 0.177328,1.519958l-18.771483,35.313694z"/>
      <path d="m56.312995,81.729273c-0.151996,0.709314 -1.190634,0.582651 -1.190634,-0.126663l0,-42.558828c0,-0.557318 0.658649,-0.835977 1.063971,-0.48132l7.143803,6.409157c0.329324,0.303992 0.48132,0.759979 0.405322,1.215967l-7.422462,35.541688z"/>
      <path d="m126.053741,96.776859l-14.464935,0c-0.658649,0 -1.266632,0.354657 -1.595956,0.911975l-7.701121,12.387659c-0.329324,0.557318 -0.937308,0.911975 -1.595956,0.911975l-16.694207,0c-0.658649,0 -1.266632,-0.354657 -1.595956,-0.911975l-8.334437,-14.439602c-0.329324,-0.557318 -0.329324,-1.266632 0,-1.849282l8.334437,-14.439602c0.329324,-0.557318 0.937308,-0.911975 1.595956,-0.911975l16.694207,0c0.658649,0 1.266632,0.354657 1.595956,0.911975l7.650456,11.906339c0.329324,0.557318 0.937308,0.911975 1.595956,0.911975l14.464935,0c1.418628,0 2.30527,-1.519958 1.595956,-2.761257l-15.95956,-26.269943c-0.329324,-0.557318 -0.937308,-0.911975 -1.595956,-0.911975l-17.656847,0.075998l13.350299,-22.951368c0.329324,-0.557318 0.329324,-1.266632 0,-1.849282l-7.853117,-13.628958c-0.430655,-0.734646 -1.494626,-0.734646 -1.899948,0l-40.633548,69.943407c-0.329324,0.557318 -0.329324,1.266632 0,1.849282l17.707512,30.677822c0.329324,0.557318 0.937308,0.911975 1.595956,0.911975l35.415025,0c0.658649,0 1.266632,-0.354657 1.595956,-0.911975l15.984893,-26.801929c0.709314,-1.241299 -0.177328,-2.761257 -1.595956,-2.761257z"/>
    </g>

    <g class="letters">
      <path d="m213.7,124.6l0,-86.8c0,-1.6 1.3,-2.9 2.9,-2.9l7.5,0c1,0 2,0.6 2.5,1.5l32.6,56.7l10,19.2l0.6,0c-0.3,-4.7 -0.6,-9.6 -0.9,-14.6c-0.3,-5 -0.5,-10 -0.5,-14.9l0,-44.9c0,-1.6 1.3,-2.9 2.9,-2.9l5.3,0c1.6,0 2.9,1.3 2.9,2.9l0,86.8c0,1.6 -1.3,2.9 -2.9,2.9l-7.5,0c-1,0 -2,-0.6 -2.5,-1.5l-32.7,-56.8l-10,-19.1l-0.6,0c0.6,7.1 1.1,14.4 1.5,21.8c0,0.1 0,0.1 0,0.2l0,52.4c0,1.6 -1.3,2.9 -2.9,2.9l-5.3,0c-1.6,0 -2.9,-1.3 -2.9,-2.9z"/>
      <path d="m344.8,44.5l-0.6,0c-1.3,4.8 -21,68.7 -24.8,81c-0.4,1.2 -1.5,2 -2.8,2l-5.8,0c-2,0 -3.4,-2 -2.8,-3.8l29.4,-86.8c0.4,-1.2 1.5,-2 2.8,-2l9.1,0c1.2,0 2.4,0.8 2.8,2l29.4,86.8c0.6,1.9 -0.8,3.8 -2.8,3.8l-6.4,0c-1.3,0 -2.4,-0.8 -2.8,-2c-3.7,-12.3 -23.3,-76.2 -24.7,-81z"/>
      <path d="m410,124.6l0,-86.8c0,-1.6 1.3,-2.9 2.9,-2.9l5.9,0c1.6,0 2.9,1.3 2.9,2.9l0,86.8c0,1.6 -1.3,2.9 -2.9,2.9l-5.9,0c-1.6,0 -2.9,-1.3 -2.9,-2.9z"/>
      <path d="m483.5,129.2c-6.5,0 -12.5,-1.2 -18.1,-3.7c-4.7,-2.1 -8.8,-4.8 -12.5,-8.1c-1.1,-1 -1.2,-2.8 -0.2,-4l3.3,-3.8c1,-1.2 2.9,-1.4 4.1,-0.3c2.8,2.6 6,4.7 9.6,6.4c4.5,2.1 9.1,3.2 13.9,3.2c6.1,0 10.9,-1.4 14.3,-4.2c3.4,-2.8 5.1,-6.4 5.1,-10.9c0,-2.4 -0.4,-4.4 -1.2,-6s-1.9,-3.1 -3.2,-4.2c-1.4,-1.2 -3,-2.2 -4.9,-3.2c-1.9,-0.9 -3.9,-1.9 -6.1,-3l-13.3,-5.8c-2.2,-0.9 -4.4,-2.1 -6.6,-3.4c-2.3,-1.3 -4.3,-2.9 -6.1,-4.8s-3.2,-4.1 -4.4,-6.7c-1.1,-2.6 -1.7,-5.6 -1.7,-9c0,-3.5 0.7,-6.7 2.2,-9.7s3.5,-5.6 6.1,-7.8c2.6,-2.2 5.6,-3.9 9.2,-5.2c3.5,-1.2 7.4,-1.8 11.6,-1.8c5.6,0 10.7,1.1 15.4,3.2c3.8,1.7 7.1,3.8 10,6.4c1.2,1 1.2,2.8 0.2,4l-2.7,3.3c-1,1.2 -2.8,1.3 -4,0.3c-2.2,-1.8 -4.6,-3.3 -7.2,-4.5c-3.4,-1.6 -7.3,-2.3 -11.6,-2.3c-5.2,0 -9.3,1.2 -12.5,3.6s-4.7,5.7 -4.7,10c0,2.3 0.4,4.2 1.3,5.7c0.9,1.6 2.1,2.9 3.6,4.1s3.2,2.2 4.9,3.1c1.8,0.9 3.6,1.7 5.5,2.5l13.1,5.6c2.6,1.1 5.1,2.4 7.5,3.9s4.4,3.2 6.1,5.1c1.7,1.9 3,4.2 4,6.8c1,2.6 1.5,5.6 1.5,9c0,3.7 -0.7,7.1 -2.2,10.3c-1.5,3.2 -3.6,6 -6.3,8.4s-6,4.3 -9.9,5.6c-3.8,1.2 -8.2,1.9 -13.1,1.9z"/>
    </g>
  </g>
</svg>